#!OML:ASF F:\VICON\USERDATA\INSTALL\rory3\rory3.ASF
:FULLY-SPECIFIED
:DEGREES
1489
root -2.31218 18.6612 3.2144 7.70879 64.5983 6.5484
lowerback 7.85155 1.23746 -6.26382
upperback 0.328287 1.03297 -2.20132
thorax -4.13837 0.627498 1.10921
lowerneck -1.79521 -6.68994 -8.69666
upperneck 3.79765 -9.2285 12.896
head 2.43005 -4.45008 4.99899
rclavicle 1.68967e-014 2.38542e-014
rhumerus -23.2729 34.5337 -85.4003
rradius 56.9538
rwrist 13.5241
rhand -12.0584 5.56566
rfingers 7.12502
rthumb 14.0008 -23.9429
lclavicle 1.68967e-014 2.38542e-014
lhumerus -32.711 -24.8357 91.8966
lradius 77.7183
lwrist -4.85268
lhand -2.72522 27.9821
lfingers 7.12502
lthumb 22.9777 56.6326
rfemur -23.9168 11.6844 10.8769
rtibia 30.6081
rfoot -17.2948 -32.0355
rtoes 16.7267
lfemur -3.42064 -8.82331 -21.7365
ltibia 20.8558
lfoot -19.1954 14.135
ltoes -5.9038
1490
root -2.24771 18.6391 3.26832 7.29346 63.9278 6.32695
lowerback 7.59468 1.25179 -6.3699
upperback 0.470314 1.07903 -1.95695
thorax -3.85542 0.643586 1.42451
lowerneck -2.03742 -7.0181 -9.23948
upperneck 3.93712 -9.66436 13.0325
head 2.59293 -4.66171 5.09214
rclavicle 6.6891e-014 -3.65764e-014
rhumerus -22.3511 34.0636 -84.3545
rradius 56.9598
rwrist 14.404
rhand -12.8122 5.02432
rfingers 7.12502
rthumb 13.2742 -24.533
lclavicle 6.6891e-014 -3.65764e-014
lhumerus -32.8845 -24.4402 91.8196
lradius 77.6797
lwrist -4.66879
lhand -2.98742 28.4359
lfingers 7.12502
lthumb 22.726 57.1175
rfemur -23.683 11.3877 11.6047
rtibia 30.8325
rfoot -16.8254 -32.6761
rtoes 15.6928
lfemur -2.82712 -8.30199 -21.7441
ltibia 20.844
lfoot -19.4517 14.2209
ltoes -6.2611
1491
root -2.17963 18.6243 3.31987 7.0778 63.2959 6.26211
lowerback 7.20148 1.20277 -6.4721
upperback 0.574058 1.04793 -1.81385
thorax -3.52879 0.619903 1.64245
lowerneck -2.10966 -7.30722 -9.54256
upperneck 4.02517 -10.0573 13.1366
head 2.69657 -4.85532 5.14433
rclavicle -2.38542e-015 1.55052e-014
rhumerus -21.3046 34.0936 -83.1719
rradius 57.0588
rwrist 14.7315
rhand -12.6124 5.4026
rfingers 7.12502
rthumb 13.4668 -24.142
lclavicle -2.38542e-015 1.55052e-014
lhumerus -33.0182 -24.0004 91.6273
lradius 77.4944
lwrist -4.43057
lhand -3.11365 29.1027
lfingers 7.12502
lthumb 22.6049 57.7992
rfemur -23.4869 11.1298 12.1165
rtibia 31.0322
rfoot -16.3194 -33.053
rtoes 14.9486
lfemur -2.32743 -7.90558 -21.7979
ltibia 20.9489
lfoot -20.0815 14.0393
ltoes -5.08542
1492
root -2.1124 18.612 3.3666 7.2369 62.6362 6.47005
lowerback 6.77633 1.10534 -6.58032
upperback 0.528633 0.943711 -1.77856
thorax -3.33209 0.565085 1.7568
lowerneck -1.93007 -7.54723 -9.82791
upperneck 4.17542 -10.4081 13.2654
head 2.77358 -5.0347 5.2118
rclavicle 2.46493e-014 1.19271e-015
rhumerus -20.4002 34.3151 -82.1517
rradius 57.2017
rwrist 14.9658
rhand -11.8234 5.75746
rfingers 7.12502
rthumb 14.2271 -23.7353
lclavicle 2.46493e-014 1.19271e-015
lhumerus -33.2593 -23.3399 91.4787
lradius 77.1261
lwrist -4.1672
lhand -3.16435 29.9316
lfingers 7.12502
lthumb 22.5562 58.634
rfemur -23.4497 11.0854 12.2943
rtibia 31.2547
rfoot -16.2749 -32.9217
rtoes 14.2614
lfemur -1.97543 -7.61182 -21.9978
ltibia 21.0678
lfoot -20.8184 13.9248
ltoes -3.30566
1493
root -2.04661 18.6006 3.41633 7.00328 61.9619 6.30713
lowerback 6.4608 1.01829 -6.53846
upperback 0.471094 0.85571 -1.67608
thorax -3.20896 0.518118 1.85253
lowerneck -1.7591 -7.77885 -10.0806
upperneck 4.32633 -10.744 13.3027
head 2.84496 -5.20837 5.24599
rclavicle 7.35006e-014 2.38542e-015
rhumerus -19.6713 34.2518 -81.3565
rradius 57.2841
rwrist 15.4178
rhand -12.1631 5.436
rfingers 7.12502
rthumb 13.8999 -24.0795
lclavicle 7.35006e-014 2.38542e-015
lhumerus -33.4918 -22.6305 91.3637
lradius 76.6553
lwrist -4.06864
lhand -3.34765 30.4254
lfingers 7.12502
lthumb 22.3803 59.149
rfemur -23.3088 11.4116 12.544
rtibia 31.4328
rfoot -16.5718 -32.74
rtoes 13.8772
lfemur -1.60274 -7.19478 -22.0191
ltibia 21.2505
lfoot -21.3155 13.9747
ltoes -2.5841
1494
root -1.97951 18.5855 3.46786 6.33359 61.3324 5.80582
lowerback 6.28159 0.933734 -6.30159
upperback 0.440261 0.774488 -1.55592
thorax -3.13229 0.47258 1.8548
lowerneck -1.58893 -8.00545 -10.2387
upperneck 4.43133 -11.0753 13.3915
head 2.90121 -5.37735 5.28137
rclavicle -6.95746e-015 1.98785e-015
rhumerus -18.97 34.1309 -80.6913
rradius 57.3478
rwrist 15.6097
rhand -12.1874 5.66688
rfingers 7.12502
rthumb 13.8764 -23.8502
lclavicle -6.95746e-015 1.98785e-015
lhumerus -33.7664 -22.0464 91.2002
lradius 76.179
lwrist -4.27029
lhand -3.43651 30.8036
lfingers 7.12502
lthumb 22.295 59.5374
rfemur -23.0075 11.9351 12.913
rtibia 31.6372
rfoot -16.8082 -32.5811
rtoes 13.4325
lfemur -1.1603 -6.3942 -21.8474
ltibia 21.525
lfoot -21.2699 14.0499
ltoes -4.23778
1495
root -1.91265 18.5837 3.52016 5.55416 60.592 5.28457
lowerback 6.20344 0.878586 -6.06194
upperback 0.409669 0.723516 -1.45078
thorax -3.11446 0.443684 1.83538
lowerneck -1.45699 -8.25326 -10.4387
upperneck 4.61531 -11.4456 13.5814
head 3.0013 -5.56082 5.34841
rclavicle -3.03147e-015 1.31198e-014
rhumerus -18.2255 34.1098 -80.0534
rradius 57.4085
rwrist 15.4772
rhand -10.7753 6.75554
rfingers 7.12502
rthumb 15.2369 -22.6633
lclavicle -3.03147e-015 1.31198e-014
lhumerus -34.0276 -21.5234 91.0152
lradius 75.66
lwrist -4.31981
lhand -3.40702 30.856
lfingers 7.12502
lthumb 22.3233 59.5864
rfemur -22.6049 12.6601 13.2619
rtibia 31.8412
rfoot -16.8256 -32.3349
rtoes 13.1468
lfemur -0.330957 -6.84904 -21.6367
ltibia 21.9533
lfoot -23.4393 12.4881
ltoes 4.70319
1496
root -1.84515 18.5708 3.57176 4.84657 59.7489 4.90682
lowerback 6.12674 0.859407 -5.94226
upperback 0.418093 0.714684 -1.31504
thorax -3.06219 0.436102 1.91096
lowerneck -1.43046 -8.55782 -10.6837
upperneck 4.8884 -11.8916 13.7388
head 3.15699 -5.77778 5.39992
rclavicle -4.5795e-014 -1.03368e-014
rhumerus -17.4571 34.1326 -79.3069
rradius 57.5153
rwrist 15.1718
rhand -10.3654 7.00974
rfingers 7.12502
rthumb 15.6317 -22.3787
lclavicle -4.5795e-014 -1.03368e-014
lhumerus -34.2259 -20.9796 90.8935
lradius 75.1239
lwrist -4.26073
lhand -3.48822 30.9965
lfingers 7.12502
lthumb 22.2453 59.7363
rfemur -22.2082 13.2186 13.5357
rtibia 32.1093
rfoot -16.9885 -31.709
rtoes 13.5963
lfemur 0.245225 -6.48159 -21.5676
ltibia 22.5479
lfoot -24.3117 12.1015
ltoes 6.55595
1497
root -1.77479 18.5534 3.61795 4.06235 58.8618 4.44562
lowerback 6.0528 0.870627 -5.61668
upperback 0.45117 0.760003 -1.21413
thorax -2.9868 0.451676 1.83073
lowerneck -1.45009 -8.86455 -10.6199
upperneck 5.12832 -12.3245 13.6215
head 3.27381 -5.98825 5.3165
rclavicle -2.41275e-014 -4.77083e-015
rhumerus -16.6839 34.0655 -78.5075
rradius 57.6812
rwrist 14.7179
rhand -11.4897 6.46119
rfingers 7.12502
rthumb 14.5488 -23.0086
lclavicle -2.41275e-014 -4.77083e-015
lhumerus -34.4241 -20.4659 90.7569
lradius 74.589
lwrist -4.48505
lhand -2.57052 31.2314
lfingers 7.12502
lthumb 23.1261 59.8634
rfemur -21.832 13.4764 13.8701
rtibia 32.4239
rfoot -17.1018 -30.75
rtoes 13.7644
lfemur 0.676768 -6.0006 -21.5187
ltibia 23.3297
lfoot -25.0452 12.2299
ltoes 6.70197
1498
root -1.70737 18.5336 3.66299 3.00375 57.9133 3.70585
lowerback 6.05684 0.882395 -5.13697
upperback 0.479429 0.810454 -1.09765
thorax -2.95823 0.469256 1.67885
lowerneck -1.3704 -9.09173 -10.2907
upperneck 5.27884 -12.6443 13.3534
head 3.30597 -6.14678 5.16031
rclavicle 7.04443e-014 6.75868e-015
rhumerus -15.8523 34.073 -77.7159
rradius 57.8883
rwrist 14.0827
rhand -11.8212 6.38374
rfingers 7.12502
rthumb 14.2293 -23.1088
lclavicle 7.04443e-014 6.75868e-015
lhumerus -34.7849 -19.9268 90.5635
lradius 74.1898
lwrist -4.98692
lhand -0.227634 31.2454
lfingers 7.12502
lthumb 25.3723 59.5773
rfemur -21.4857 13.4881 14.4345
rtibia 32.8314
rfoot -16.7452 -29.6478
rtoes 12.7057
lfemur 1.09109 -5.42749 -21.2895
ltibia 24.2447
lfoot -25.9096 12.1332
ltoes 7.5846
1499
root -1.63948 18.5087 3.70845 2.07701 56.94 3.16547
lowerback 6.06353 0.865344 -4.83223
upperback 0.492168 0.810776 -0.958391
thorax -2.94645 0.465118 1.65236
lowerneck -1.11674 -9.24725 -10.0802
upperneck 5.37695 -12.8765 13.1801
head 3.29554 -6.26915 5.06832
rclavicle -4.04278e-014 1.63003e-014
rhumerus -15.0513 34.233 -76.9769
rradius 58.0093
rwrist 13.5417
rhand -11.7855 6.71938
rfingers 7.12502
rthumb 14.2637 -22.7708
lclavicle -4.04278e-014 1.63003e-014
lhumerus -35.2251 -19.2357 90.3101
lradius 73.8273
lwrist -5.6781
lhand 1.67503 31.1102
lfingers 7.12502
lthumb 27.1938 59.1704
rfemur -21.1114 13.0821 14.9622
rtibia 33.2881
rfoot -16.1188 -28.2833
rtoes 10.9615
lfemur 1.47691 -4.65418 -21.1429
ltibia 25.2796
lfoot -26.5932 12.08
ltoes 7.82566
1500
root -1.57449 18.4833 3.75537 1.32319 55.9577 2.83132
lowerback 6.13102 0.826142 -4.68115
upperback 0.456198 0.766449 -0.805307
thorax -3.01874 0.443286 1.72881
lowerneck -0.738903 -9.37229 -10.2174
upperneck 5.49688 -13.0894 13.2896
head 3.31008 -6.3855 5.12359
rclavicle -5.72251e-014 -1.98785e-015
rhumerus -14.3165 34.5301 -76.2524
rradius 58.1081
rwrist 13.0661
rhand -12.1221 6.60247
rfingers 7.12502
rthumb 13.9394 -22.9103
lclavicle -5.72251e-014 -1.98785e-015
lhumerus -35.5829 -18.4098 90.0197
lradius 73.3145
lwrist -6.76666
lhand 1.80709 31.3095
lfingers 7.12502
lthumb 27.3201 59.3499
rfemur -20.7929 12.5407 15.3547
rtibia 33.836
rfoot -15.7347 -26.6282
rtoes 10.0156
lfemur 1.82559 -3.78549 -21.0743
ltibia 26.3347
lfoot -27.03 12.1558
ltoes 7.66335
1501
root -1.51141 18.4582 3.80391 0.535194 54.9943 2.37332
lowerback 6.09709 0.756466 -4.48824
upperback 0.45419 0.692513 -0.630341
thorax -2.99677 0.403932 1.8085
lowerneck -0.475409 -9.51008 -10.3986
upperneck 5.69563 -13.3301 13.55
head 3.38442 -6.50646 5.22236
rclavicle 7.24943e-014 -6.75868e-015
rhumerus -13.3889 34.8308 -75.4563
rradius 58.1806
rwrist 12.5005
rhand -12.4687 6.72025
rfingers 7.12502
rthumb 13.6053 -22.8152
lclavicle 7.24943e-014 -6.75868e-015
lhumerus -35.8283 -17.5805 89.7031
lradius 72.8406
lwrist -8.02585
lhand 1.82173 32.1189
lfingers 7.12502
lthumb 27.3341 60.1571
rfemur -20.5842 12.1962 15.7449
rtibia 34.3987
rfoot -15.8825 -24.9993
rtoes 10.9056
lfemur 1.89619 -2.44958 -20.8545
ltibia 27.485
lfoot -26.5724 13.1502
ltoes 3.08996
1502
root -1.4511 18.4208 3.85477 -0.0378501 54.0438 2.11626
lowerback 5.96925 0.683015 -4.44436
upperback 0.509934 0.609726 -0.494798
thorax -2.86301 0.35915 1.93275
lowerneck -0.420633 -9.68691 -10.3593
upperneck 5.90713 -13.6059 13.676
head 3.47827 -6.63521 5.23244
rclavicle -5.85048e-014 -1.98785e-015
rhumerus -12.2592 35.102 -74.573
rradius 58.2623
rwrist 11.8092
rhand -12.6758 6.76203
rfingers 7.12502
rthumb 13.4057 -22.7866
lclavicle -5.85048e-014 -1.98785e-015
lhumerus -36.0016 -16.7382 89.3788
lradius 72.3967
lwrist -9.21652
lhand 2.25598 32.6074
lfingers 7.12502
lthumb 27.7494 60.5794
rfemur -20.434 11.8577 16.0136
rtibia 34.9535
rfoot -16.0103 -23.5627
rtoes 10.7169
lfemur 1.57238 -0.597491 -20.7685
ltibia 28.7376
lfoot -24.0851 16.2674
ltoes -10.7954
1503
root -1.38778 18.4007 3.90881 -0.67382 53.0666 1.88126
lowerback 5.94564 0.629707 -4.37049
upperback 0.536351 0.547756 -0.405244
thorax -2.81846 0.326385 1.98947
lowerneck -0.285467 -9.86402 -10.2731
upperneck 6.0918 -13.8895 13.8373
head 3.5513 -6.76889 5.24999
rclavicle -2.48481e-014 -4.96962e-015
rhumerus -11.2719 35.3177 -73.8194
rradius 58.3445
rwrist 11.274
rhand -12.6461 6.61566
rfingers 7.12502
rthumb 13.4343 -22.9311
lclavicle -2.48481e-014 -4.96962e-015
lhumerus -36.3253 -16.0545 89.0781
lradius 71.9239
lwrist -9.9698
lhand 3.00259 32.968
lfingers 7.12502
lthumb 28.463 60.8228
rfemur -20.0824 11.4201 16.3398
rtibia 35.4263
rfoot -15.9673 -22.1353
rtoes 9.25442
lfemur 1.73417 0.174046 -20.6161
ltibia 30.1435
lfoot -24.4 16.2879
ltoes -11.0466
